<?xml version="1.0" encoding="iso-8859-1"?>
<!-- Generator: Adobe Illustrator 23.0.1, SVG Export Plug-In . SVG Version: 6.00 Build 0)  -->
<svg version="1.1" id="Layer_1" xmlns="http://www.w3.org/2000/svg" xmlns:xlink="http://www.w3.org/1999/xlink" x="0px" y="0px"
	 viewBox="0 0 500 500" style="enable-background:new 0 0 500 500;" xml:space="preserve">
<g>
	<path style="fill:#FFFFFF;" d="M135.449,385.764l250.316-250.316c5.858-5.858,5.858-15.355,0-21.213
		c-5.858-5.858-15.355-5.858-21.213,0L114.235,364.551c-5.858,5.858-5.858,15.355,0,21.213
		C120.094,391.623,129.59,391.623,135.449,385.764L135.449,385.764z"/>
	<path style="fill:#FFFFFF;" d="M385.764,364.551L135.449,114.235c-5.858-5.858-15.355-5.858-21.213,0s-5.858,15.355,0,21.213
		l250.316,250.316c5.858,5.858,15.355,5.858,21.213,0C391.623,379.906,391.623,370.41,385.764,364.551L385.764,364.551z"/>
</g>
</svg>
