<?xml version="1.0" encoding="utf-8"?>
<!-- Generator: Adobe Illustrator 23.0.1, SVG Export Plug-In . SVG Version: 6.00 Build 0)  -->
<svg version="1.1" id="Layer_1" xmlns="http://www.w3.org/2000/svg" xmlns:xlink="http://www.w3.org/1999/xlink" x="0px" y="0px"
	 viewBox="0 0 500 500" style="enable-background:new 0 0 500 500;" xml:space="preserve">
<style type="text/css">
	.st0{fill:#0054A8;}
</style>
<g>
	<path class="st0" d="M427,235H73c-8.3,0-15,6.7-15,15s6.7,15,15,15h354c8.3,0,15-6.7,15-15S435.3,235,427,235L427,235z"/>
	<path class="st0" d="M427,115H73c-8.3,0-15,6.7-15,15s6.7,15,15,15h354c8.3,0,15-6.7,15-15S435.3,115,427,115L427,115z"/>
	<path class="st0" d="M427,355H73c-8.3,0-15,6.7-15,15s6.7,15,15,15h354c8.3,0,15-6.7,15-15S435.3,355,427,355L427,355z"/>
</g>
</svg>
