<?xml version="1.0" encoding="iso-8859-1"?>
<!-- Generator: Adobe Illustrator 23.0.1, SVG Export Plug-In . SVG Version: 6.00 Build 0)  -->
<svg version="1.1" id="Layer_1" xmlns="http://www.w3.org/2000/svg" xmlns:xlink="http://www.w3.org/1999/xlink" x="0px" y="0px"
	 viewBox="0 0 500 500" style="enable-background:new 0 0 500 500;" xml:space="preserve">
<g>
	<path style="fill:#FFFFFF;" d="M427,235H73c-8.285,0-15,6.715-15,15c0,8.285,6.715,15,15,15h354c8.285,0,15-6.715,15-15
		C442,241.715,435.285,235,427,235L427,235z M427,235"/>
	<path style="fill:#FFFFFF;" d="M427,115H73c-8.285,0-15,6.715-15,15s6.715,15,15,15h354c8.285,0,15-6.715,15-15
		S435.285,115,427,115L427,115z M427,115"/>
	<path style="fill:#FFFFFF;" d="M427,355H73c-8.285,0-15,6.715-15,15s6.715,15,15,15h354c8.285,0,15-6.715,15-15
		S435.285,355,427,355L427,355z M427,355"/>
</g>
</svg>
